<?xml version="1.0" encoding="iso-8859-1"?>
<!-- Generator: Adobe Illustrator 19.0.0, SVG Export Plug-In . SVG Version: 6.00 Build 0)  -->
<svg version="1.1" id="Capa_1" xmlns="http://www.w3.org/2000/svg" xmlns:xlink="http://www.w3.org/1999/xlink" x="0px" y="0px"
	 viewBox="0 0 425.611 425.611" style="enable-background:new 0 0 425.611 425.611;" xml:space="preserve">
<g>
	<g>
		<path d="M402.4,118.606h-60h-26.8h-8.8c0-0.4,0-0.4,0-0.8c0-13.6-10.8-24.4-24.4-24.4h-93.2c-13.6,0-24.4,10.8-24.4,24.4
			c0,0.4,0,0.4,0,0.8H23.2c-12.8,0-23.2,10.4-23.2,23.2v133.2c0,12.8,10.4,23.2,23.2,23.2h8.4c2.8,19.2,19.2,34,39.2,34
			c14,0,26.4-7.6,33.6-18.8c6.8,11.2,19.2,18.8,33.6,18.8c20,0,36.4-14.8,38.8-34H316h4.8c4,17.6,19.6,30.8,38.4,30.8
			s34.4-13.2,38.4-30.8h4.8c12.8,0,23.2-10.4,23.2-23.2v-133.2C426,129.006,415.6,118.606,402.4,118.606z M176.8,117.406
			c0-6.8,5.6-12.4,12.4-12.4h93.6c6.8,0,12.4,5.6,12.4,12.4c0,0.4,0,0.4,0,0.8H176.8C176.8,117.806,176.8,117.806,176.8,117.406z
			 M176.8,130.206h58.8v72h-58.8V130.206z M11.6,141.806c0-6.4,5.2-11.6,11.6-11.6h141.6v72H11.6V141.806z M70.4,320.206
			c-15.2,0-27.6-12.4-27.6-27.6s12.4-27.6,27.6-27.6c15.2,0,27.6,12.4,27.6,27.6S85.6,320.206,70.4,320.206z M137.6,320.206
			c-15.2,0-27.6-12.4-27.6-27.6s12.4-27.6,27.6-27.6s27.6,12.4,27.6,27.6C164.8,307.806,152.8,320.206,137.6,320.206z
			 M176.4,285.806c-3.2-18.8-19.2-32.8-38.8-32.8c-14,0-26.4,7.6-33.6,18.8c-6.8-11.2-19.2-18.8-33.6-18.8
			c-19.6,0-35.6,14.4-38.8,32.8h-8.8c-6,0.4-11.2-4.8-11.2-11.2v-60.4h230h50.8v60.4c0,4,1.2,8,3.2,11.2H176.4z M292.4,141.406v60.4
			h-44.8v-71.6h48C293.6,133.406,292.4,137.406,292.4,141.406z M304.4,141.806c0-6.4,5.2-11.2,11.2-11.2h27.2v-0.4h10.4v72h-48.8
			V141.806z M359.2,317.006c-15.2,0-27.6-12.4-27.6-27.6s12.4-27.6,27.6-27.6s27.6,12.4,27.6,27.6S374.4,317.006,359.2,317.006z
			 M402.8,286.206h-4.4c-1.6-20-18.8-36-39.2-36s-37.6,16-39.2,36h-4c-6.4,0-11.2-5.2-11.2-11.2v-60.8h54.8c0,0,14-0.4,26.4,12
			c12.4,12.4,19.2,32.4,19.6,59.6C404.8,286.206,404,286.206,402.8,286.206z M414,256.206c-3.6-16.4-10.4-29.2-20-38.4
			c-10.4-10.4-22-13.6-28.8-14.8v-72.8h37.2c6.4,0,11.6,5.2,11.6,11.6V256.206z"/>
	</g>
</g>
<g>
</g>
<g>
</g>
<g>
</g>
<g>
</g>
<g>
</g>
<g>
</g>
<g>
</g>
<g>
</g>
<g>
</g>
<g>
</g>
<g>
</g>
<g>
</g>
<g>
</g>
<g>
</g>
<g>
</g>
</svg>
